<?xml version="1.0" encoding="UTF-8"?>
<svg id="_图层_2" data-name="图层 2" xmlns="http://www.w3.org/2000/svg" viewBox="0 0 73.94 78.51">
  <defs>
    <style>
      .cls-1 {
        fill: #ffc897;
      }
    </style>
  </defs>
  <g id="_图层_1-2" data-name="图层 1">
    <g>
      <path class="cls-1" d="M36.69,15.41c1.29,.06,1.49-.13,1.42-1.39-.04-.89-.26-1.12-1.14-1.18-.28-.02-.56,0-.84-.02-.67-.03-1-.33-1.01-1.05,0-.84-.1-1.68-.19-2.51-.1-.82-.57-1.26-1.43-1.28-2.34-.05-4.49-.12-6.83-.17-.93-.02-1.2-.32-1.06-1.25,.06-.43,.13-.85,.16-1.28,.04-.71-.59-1-1.21-1.09-.63-.09-1.15,.1-1.28,.78-.09,.49-.1,1.01-.07,1.51,.07,1.08-.11,1.37-1.17,1.38-1.68,.02-3.36-.03-5.04,0-.58,.01-1.17,.11-1.72,.28-.76,.23-1.16,.88-1,1.5,.19,.72,.81,.49,1.27,.5,2.27,.02,4.53,0,6.8,.03,.24,0,.67,.11,.69,.42,.05,.65,.03,1.31,.03,2.05-.51,0-.91-.01-1.31,0-2.01,.08-4.02,.11-6.02,.28-.47,.04-1.01,.48-1.32,.88-.2,.26-.16,.84-.02,1.2,.09,.22,.56,.43,.86,.42,2.11-.07,4.22-.2,6.33-.32,1.64-.09,1.33,0,1.45,1.67,0,.08,0,.15,0,.23,.01,.98,.04,1.37-.93,1.56-.52,.1-.95,.12-1.48,.15-1.93,.1-3.86,.19-5.79,.28-.47,.02-.73,.2-.66,.7,.08,.52-.32,1.25,.59,1.42,.42,.08,.86,.15,1.29,.14,2.06-.07,4.12-.17,6.18-.24,.31-.01,.8-.22,.82,.36,.04,.83,0,1.67,0,2.52-.27,.03-.44,.07-.61,.07-2.06,0-4.12,0-6.18-.03-1.23-.02-1.75,.32-1.98,1.52-.09,.47-.17,.96-.17,1.44,0,3.31,.02,6.62,.03,9.93,0,.84,.26,1,1.44,1,.7,0,.94-.36,.93-1-.01-1.07,.03-2.14-.01-3.21-.02-.61,.14-.86,.8-.85,1.68,.04,3.36,.04,5.04,0,.59-.01,.84,.22,.9,.76,.1,.91,.2,1.82,.32,2.73,.14,1.06,.45,1.44,1.07,1.41,.59-.03,.86-.5,.89-1.54,.03-.89,.07-1.78,.11-2.67,.02-.51,.27-.69,.79-.69,1.88,.02,3.77,.03,5.65,0,.53,0,.71,.18,.69,.71-.03,1.15-.01,2.29,0,3.44,0,.57,.3,.92,.85,.99,.55,.07,.78-.32,.87-.77,.15-.77,.32-1.55,.36-2.33,.13-3.02,.2-6.05,.29-9.08,.03-1.17-.13-1.38-1.26-1.58-.25-.04-.51-.07-.76-.07-1.75,0-3.51-.01-5.26,0-2.05,.02-2.05,.03-2.05-1.98,0-.08,.01-.15,0-.23-.11-.64,.24-.89,.8-.91,1.14-.04,2.28-.05,3.43-.07,1.09-.02,2.18,0,3.27-.07,.79-.05,1.22-.54,1.3-1.34,.09-.91,.16-1.83,.34-2.72,.23-1.19,.52-1.36,1.74-1.31Zm-13.41,14.85c-2.17,.05-4.24,.11-6.32,.13-.14,0-.39-.29-.42-.47-.1-.65-.15-1.31-.18-1.97-.04-1.13,.36-1.71,1.49-1.81,1.13-.1,2.28,0,3.42,.02,.03,0,.05,0,.08,.01,.56,.09,1.3,0,1.63,.33,.32,.31,.26,1.05,.3,1.6,.04,.65,.01,1.31,.01,2.15Zm2.54-3.95c2.1,0,4.06-.01,6.02,0,.6,0,.94,.34,.94,.97,0,.87-.01,1.73,0,2.6,0,.4-.17,.54-.55,.54-1.96,0-3.92,0-5.88-.02-.18,0-.5-.24-.5-.37-.04-1.21-.02-2.43-.02-3.72Zm6.95-9.87c0,2.07-.23,2.36-2.34,2.37-1.51,0-3.02-.2-4.57-.32v-3.25c2.15,0,4.21,0,6.26,0,.55,0,.71,.25,.66,.75-.02,.15,0,.3,0,.46Zm-.04-3.98c-.02,.16-.32,.39-.48,.39-2.16-.05-4.31-.15-6.53-.23v-2.46c2.14,0,4.2-.01,6.25,0,.51,0,.78,.36,.8,.85,.02,.48,.03,.97-.04,1.45Z"/>
      <path class="cls-1" d="M38.93,18.37c.22,.63,.78,1,1.49,1,3.18,0,6.35,.02,9.53,0,1.24-.01,1.75,.41,1.75,1.64,0,2.6-.09,7.79-.13,7.79,0,2.6-.01,5.19,.02,7.79,0,.35,.17,.95,.35,.99,.69,.13,1.45,.2,2.13,.04,.29-.07,.52-.75,.61-1.18,.11-.51,0-1.07,.08-1.6,.14-.94,.74-1.27,1.65-1.07,.63,.14,1.29,.19,1.93,.19,3.14,0,6.3-.6,9.43,.21,.69,.18,1.31-.46,1.43-1.35,.08-.61-.4-1.16-1.07-1.21-.58-.04-1.17-.06-1.76-.06-3.44,0-6.88,0-10.31,.03-.73,0-1.11-.29-1.21-.96-.08-.53-.12-1.06-.15-1.59-.04-.76,.3-1.22,1.04-1.36,.37-.07,.76-.05,1.14-.05,2.03-.03,4.07-.08,6.1-.08,1.88,0,3.75,.05,5.63,.06,.19,0,.49,.08,.54-.15,.11-.51,.02-1.06-.11-1.56-.05-.2-.43-.35-.69-.45-1.26-.48-2.55-.23-3.84-.18-1.91,.07-3.82,.05-5.72,.13-.99,.04-1.57,.33-2.56,.42-1.04,.09-1.68-.38-1.69-1.2-.01-1.34-.02-2.68-.02-4.02,0-.87,.48-1.37,1.21-1.34,2.92,.09,5.45,.09,8.38,.12,1.01,.01,2.04-.1,3.03-.29,1.15-.22,1.76-.95,1.79-1.98,.11-3.36,.2-6.72,.29-10.08,0-.29-.05-.61-.16-.88-.23-.56-.68-.74-1.25-.55-.5,.17-.75,.44-.68,1.07,.25,2.05-.81,2.99-2.88,2.85-2.58-.18-5.18-.27-7.77-.31-1.73-.03-2.48-.87-2.14-2.56,.09-.47,.11-.96,.1-1.44-.01-.53-.3-.85-.87-.85-.36,0-.71-.04-1.07,0-.67,.05-1.01,.43-.97,1.11,.06,1.09,.05,1.31,.14,2.4,.11,1.23-.26,1.26-1.13,1.3-2.36,.11-4.56-.29-6.87,.02-2.13,.29-3.11-.65-2.76-2.76,.1-.59-.61-1.49-1.3-1.63-.72-.14-1.1,.31-1.18,.9-.17,1.23-.32,2.47-.33,3.7,0,2.13,.05,4.26,.19,6.38,.06,.89,.33,1.79,.63,2.64Zm15.63-5.5c.09-.68,.5-.96,1.22-.97,.8-.01,1.58-.15,2.35-.36,.7-.19,1.36-.22,2.06-.05,1.57,.38,3.13,.3,4.7-.01,.66-.13,1.34,.26,1.49,.92,.2,.86,.3,1.76,.32,2.65,.02,.79-.55,1.36-1.24,1.59-1.1,.36-1.56,.41-2.71,.61-.47,.08-1.25,.2-1.92,.19-.61,0-1.22-.03-1.83-.1-1.6-.18-2.86-.45-4.32-.98-.18-.06-.4-.35-.39-.53,.05-.99,.14-1.98,.27-2.96Zm-13.24-1.34c.83-.08,1.66-.21,2.49-.24,2.03-.07,4.07-.05,6.1-.15,.97-.05,1.55,.42,1.72,1.23,.2,.95,.32,1.96,.22,2.92-.12,1.16-.92,1.58-2.09,1.57-.71,0-5.64,.02-7.39-.02-.41-.01-.89-.17-1.19-.42-.24-.21-.45-.73-.36-1.01,.31-.95,.27-1.83-.14-2.74-.33-.73-.12-1.07,.65-1.14Z"/>
      <path class="cls-1" d="M47.13,55.23c.86,.74,1.9,.67,2.84,.48,1.91-.37,3.81-.12,5.71-.06,2.59,.08,5.18,.27,7.76,.42,.79,.04,1.32-.56,1.2-1.34-.11-.7-.52-1.24-1.17-1.47-.56-.2-1.19-.31-1.78-.3-5.29,.1-10.57,.23-15.86,.35-.58,.01-1.16,.22-1.56,.64-.67,.71-.66,1.63-.66,2.51,.01,2.93,.13,5.85,.03,8.77-.07,2.02,.87,3.8,3.84,3.64,2.87-.15,5.75-.25,8.62-.24,1.49,0,2.97,.22,4.45,.43,.23,.03,.59,.02,.65,.6,.07,.66-.23,.63-.58,.68-.18,.03-.44,0-.64,.01-3.94,.15-7.89,.24-11.83,.46-1.17,.07-2.33,.45-3.48,.74-.09,.02-.17,.06-.25,.1-.43,.22-.52,.83-.17,1.16,.4,.37,.85,.57,1.49,.53,1.04-.06,2.09,.05,3.13,.07,3.31,.08,6.62,.24,9.92,.18,1.15-.02,2.33-.46,3.42-.92,1.01-.42,1.63-1.34,1.67-2.47,.08-1.98,.06-3.97,.09-5.95,.02-1.12-.05-2.25,.11-3.35,.19-1.34-.66-2.62-1.99-2.9-3.2-.67-6.43-.87-9.69-.43-1.46,.2-2.91,.58-4.37,.61-1.73,.04-2.18-.82-1.68-2.7,.1-.4,.45-.55,.77-.27Zm14.9,10.03c0,.31-.09,.63-.56,.89-.49,.22-1.08,.36-1.62,.34-1.27-.04-2.53-.26-3.8-.28-2.39-.04-4.78,.02-7.17,.03-.56,0-1.12,.02-1.67-.06-.47-.07-.87-.32-.88-.89,0-.58,.25-.99,.84-1.1,.5-.09,1-.14,1.36-.18,1.63,.16,3.09,.4,4.56,.43,1.96,.04,3.92-.1,5.88-.11,.81,0,1.62,.09,2.41,.25,.27,.06,.66,.35,.66,.7Zm-15.38-4.68c.59-.29,1.3-.48,1.96-.5,2.84-.08,5.68-.07,8.53-.11,.79-.01,1.58-.11,2.36-.09,1.39,.03,2.11,.81,1.95,1.93-.1,.7-.49,.89-1.16,.87-2.88-.82-5.89-.55-8.88-.58-.6,0-1.2,.2-1.8,.19-.95-.02-1.92-.05-2.83-.27-.74-.18-.81-1.1-.12-1.44Z"/>
      <path class="cls-1" d="M7.74,43.06c1.1-.71,2.33-.73,3.54-.72,2.31,.02,4.63,.17,6.94,.26,.81,.03,1.24-.47,1.23-1.36,0-.71-.56-1.19-1.3-1.15-.76,.04-1.52,.11-2.29,.1-2.55-.02-5.09-.11-7.64-.08-.95,.01-1.91,.23-2.85,.45-.75,.18-1.12,.69-1.05,1.53,.08,.96,.09,1.94,.04,2.9-.11,1.95-.38,3.9-.42,5.86-.08,3.64-.04,7.28-.06,10.92,0,.61-.09,1.22-.1,1.83-.03,2.21-.07,4.42-.03,6.62,.02,.93,.52,1.7,1.32,2.21,.8,.51,1.51,.26,1.66-.66,.13-.82,.08-1.67,.08-2.5,0-.91-.05-1.83-.08-2.74-.01-.49,.24-.66,.72-.63,.91,.06,1.83,.14,2.75,.09,1.98-.1,3.95-.26,5.93-.42,.56-.05,.97-.34,1.17-.94,.93-2.78,1.15-5.62,.78-8.51-.08-.62-.24-1.17-1.02-1.17-.73,0-1.24,.33-1.41,1.04-.13,.54-.12,1.11-.25,1.65-.05,.22-.31,.56-.49,.57-1.98,.1-3.97,.26-5.94,.19-2.03-.07-2.58-.86-2.38-2.87,.02-.15,.06-.3,.06-.45,.03-.69,.4-.84,1.06-.83,2.72,.04,5.45,.04,8.17,0,1.54-.02,1.99-.42,2.35-1.95,.64-2.68,.65-5.4,.24-8.11-.04-.27-.39-.63-.65-.7-1.34-.37-2.05,.23-2.01,1.62,0,.23,.01,.46,.02,.69,.03,.51-.18,.75-.71,.75-.84,0-1.68,.08-2.52,.09-1.88,.01-3.75,0-5.6,0-.04-.8-.05-1.35-.09-1.9-.06-.73,.19-1.25,.82-1.67Zm.45,17.43c2.26-.03,4.52-.11,6.77-.15,.45,0,.51,.46,.5,1.25,0,.64-.25,1.17-.59,1.25-1.88,0-3.76-.02-5.64-.04-.76,0-1.52,0-2.3,0-.06-.22-.13-.41-.16-.61-.26-1.54-.12-1.68,1.41-1.7Zm1.33-11.64c1.6,0,3.2,.02,4.81,.04,1.05,.01,1.39,.34,1.49,1.4,.03,.28,.01,.56,0,.84-.02,.63-.32,.88-.97,.87-2.47-.03-4.93-.02-7.4-.02-.34,0-.61-.02-.61-.46,0-.86,0-1.71,0-2.67,.96,0,1.81,0,2.67,0Z"/>
      <path class="cls-1" d="M34.21,42.65c.87,0,1.43-.4,1.43-1.11,0-.83-.43-1.15-1.42-1.13-2.21,.04-4.43,.05-6.64,.09-2.29,.04-4.58,.09-6.87,.19-.31,.01-.72,.31-.86,.58-.13,.25-.07,.78,.12,.96,.26,.24,.72,.36,1.09,.37,1.7,.04,3.4,.02,5.3,.02,0,1.38-.01,2.7,0,4.01,0,.53-.22,.68-.73,.69-1.25,.02-2.5,.03-3.73,.21-1.78,.26-2.26,.86-2.25,2.65,0,2.44,.1,4.89,.07,7.33-.02,2.09-.17,4.17-.23,6.25-.02,.66,.08,1.31,.1,1.97,.04,1.8,.02,3.6,.1,5.4,.04,.8,.6,1.3,1.17,1.28,.62-.03,1.06-.5,1.14-1.31,.08-.78,.14-1.57,.13-2.36-.03-3.31-.14-6.61-.11-9.92,.02-2.56,.2-5.13,.32-7.69,.05-1.01,.4-1.45,1.42-1.56,.8-.09,1.61-.02,2.53-.02,0,2.13,0,4.06,0,6,.02,5.83,.04,11.66,.06,17.48,0,.41,.05,.73,.49,.92,.88,.39,1.69-.12,1.72-1.15,.02-.48-.08-.97-.06-1.45,.07-1.98,.36-3.98,.33-5.96-.03-2.11-.3-4.21-.34-6.32-.05-2.46,.05-4.93,.07-7.4,.02-2.29,.23-2.06,2.59-2.06,1.08-.05,1.28,.61,1.32,1.59,.1,2.59,.19,5.19,.28,7.78,.06,1.78,.17,3.56,.18,5.34,.02,2.39-.03,4.79-.05,7.18,0,.77,.48,1.34,1.19,1.44,.61,.09,1.16-.35,1.35-1.09,.07-.27,.07-.55,.07-.83,0-4.86,0-9.73,0-14.59,0-1.76,.06-3.51,.01-5.27-.06-2.51-1.02-3.52-3.54-3.77-1.11-.11-2.22-.13-3.36-.19v-4.58c1.94,0,3.77-.01,5.59,0Z"/>
      <path class="cls-1" d="M.07,22.35c0,5.95,0,11.91,0,17.86,0,3.27-.15,6.59,0,9.86,.02,.31,.64,3.58,1.03,4.81,.07,.21,.36,.22,.44,.01,.94-2.37,.1-6.63,.05-9-.05-2.73,.68-5.27,.59-7.94-.12-3.31,.14-6.47-.25-9.78-.18-1.48-.05-2.77,.16-4.23,.21-1.5-.13-2.87-.09-4.38,.04-1.58,.64-3.08,.65-4.65,0-1.24-.19-2.54-.23-3.8-.06-2.26-.95-4.14,.2-6.21,1.02-1.83,2.74-2.77,4.78-2.86,2.46-.11,5.09-.55,7.53-.29,2.85,.31,5.54,.07,8.39,.25,2.94,.19,5.88,.37,8.82,.41,2.59,.03,5.15-.33,7.71-.06,1.97,.21,3.93,.42,5.91,.45,6.4,.09,12.59-.65,18.92-.15,1.8,.14,5.98-.14,6.86,1.68,1,2.06,.66,5.5,.5,7.72-.22,3.08-.86,6.1-.53,9.18,.3,2.81,.36,5.31-.02,8.12-.78,5.71,.33,11.96,.67,17.71,.03,0,.05,0,.08-.01,0,0,.02,0,.03-.01,0,0,.01,0,.01-.01,1.78-1.2,1.48-34.15,1.47-37.3,0-2.43,.48-6.41-.64-8.61-.89-1.76-4.48-.92-6.3-.91-6.32,0-12.64,0-18.96,0-12.29,0-24.58,0-36.87,0-3.03,0-6.09-.13-9.12,.02C-.92,.36,.28,2.07,.37,4.15,.5,7.14,.07,10.32,.07,13.35c0,3,0,6,0,9Z"/>
      <path class="cls-1" d="M73.82,75.03c-.05-4.21-.05-8.43-.07-12.64,0-2.23,.28-4.72-.03-6.92-.05-.37-.7-1.59-1.08-2.29-.1-.19-.38-.15-.44,.05-.91,3.04-1.3,5.52-.24,9.22,.38,1.33,.42,2.72,.14,4.07-.33,1.61,.58,5.4-.7,7.33-1.23,1.84-4.57,1.7-6.51,2-4,.62-8.16,1.29-12.19,.5-3.86-.75-8.07,.62-11.82-.32-1.78-.45-3.2,.08-5.14,.09-2.09,0-4.4-.64-6.45-.36-1.95,.26-3.66,.78-5.67,.61-1.79-.15-3.51-.4-5.27-.74-2.3-.44-4.32,.21-6.63,.21-1.9,0-3.77-.28-5.67-.28-1.45,0-2.69-.23-3.56-1.53-1.15-1.73-.22-3.52-.41-5.36-.11-1.06-.34-1.49-.15-2.69,.17-1.03,.16-2.1-.05-3.12-.62-3.08-1.27,.21-1.46,1.63-.64,4.55-.28,9.16-.35,13.73,8.71,.61,17.64,.09,26.37,.1,8.85,0,17.71,0,26.56-.02,4.46,0,8.91-.02,13.37-.03,1.82,0,5.01,.58,6.67-.02,1.33-.48,.79-1.78,.77-3.21Z"/>
      <path class="cls-1" d="M67.6,73.46c.58,.45,2.21-.25,2.29-.98,.1-.93,.12-1.88,.09-2.81-.12-3.89-.35-7.78-.4-11.67-.07-5.57-.03-11.15-.03-16.72,0-1.27-.54-1.84-1.78-1.84-1.81,0-9.24,.04-11.15,.05-1.11,0-1.94,.65-1.97,1.62-.08,2.93-.12,5.85-.12,8.78,0,.96,.54,1.44,1.4,1.48,.84,.03,1.67,.1,2.51,.11,2.03,.02,4.06,.04,6.09,.01,1.3-.02,2.11,.54,2.17,1.71,.09,1.85,.11,3.71,.19,5.57,.1,2.23,.22,4.46,.38,6.69,.18,2.35,.74,4.68-.03,7.03-.09,.27,.12,.79,.36,.98Zm-9.47-30.7c.62-.32,1.29-.59,1.97-.7,.77-.12,3.73-.12,4.41-.19,.76-.07,1.38,.2,1.79,.79,.24,.33,.47,.94,.32,1.2-.19,.33-.77,.59-1.19,.61-1.89,.08-3.79,.13-5.69,.06-.58-.02-1.19-.34-1.7-.66-.5-.32-.41-.85,.08-1.11Zm8.56,5.55c-.09,.24-.76,.33-1.17,.34-2,.05-4.01,.04-6.02,.05-.3,0-.61,.03-.89-.06-.58-.17-1.06-.94-.94-1.5,.14-.64,.68-.68,1.2-.72,.33-.03,.66,0,.77,0,1.66,.1,3.11,.2,4.56,.26,.42,.02,.85-.18,1.27-.16,.4,.01,1.04,.06,1.15,.29,.21,.43,.24,1.06,.07,1.5Z"/>
      <path class="cls-1" d="M41.29,53.03c-.01-.64,.26-1.22,.93-1.36,.39-.08,.81-.05,1.21-.03,.53,.03,1.06,.06,1.56,.09,.76,.05,1.52,.03,2.28-.04,1.21-.11,2.3-.21,3.38-.36,.86-.12,1.52-.82,1.61-1.69,.08-.75,.06-1.5,.06-2.26,.02-1.88-.11-3.77,.08-5.63,.16-1.6-.14-2.11-1.75-2.1-3.21,.01-6.41,.06-9.62-.04-1.45-.05-2.62,1.1-2.62,2.55,.02,3.72,0,7.44,.01,11.15,.02,2.9,.12,5.8,.1,8.69-.02,2.49-.19,4.97-.22,7.46-.02,1.14,.06,2.28,.22,3.41,.1,.69,.72,.96,1.56,.86,.57-.07,.72-.51,.79-.98,.05-.27,.05-.56,.06-.83,.05-1.83,.11-3.67,.12-5.5,.02-2.6-.01-5.19,0-7.79,0-.6,.09-1.21,.12-1.81,.05-1.26,.13-2.52,.11-3.78Zm8.3-4.79c-.53,.22-1.68,.37-1.69,.32-1.72,0-3.44,0-5.16,0-.55,0-1.33-.59-1.37-1.14-.01-.22,.19-.6,.37-.65,.58-.17,1.19-.3,1.8-.32,1.38-.05,2.77,0,4.16-.06,.65-.03,1.97,.53,2.18,1.14,.06,.19-.11,.63-.29,.7Zm-7.61-6.03c.65-.08,1.32-.05,1.98-.05,.51,0,3.55-.03,4.57-.02,.79,0,1.35,.38,1.39,.9,.05,.59-.44,1.15-1.21,1.24-.54,.06-1.11-.06-1.66-.06-1.22,0-2.44,.03-3.65,.04-.81,0-1.55-.05-1.95-.97-.29-.69-.23-.99,.53-1.08Z"/>
      <path class="cls-1" d="M9.55,35.24c-1.27-.03-2.55-.01-3.82,0-.25,0-.54-.03-.75,.08-.29,.16-.67,.39-.73,.66-.06,.27,.15,.78,.38,.89,.6,.27,1.28,.52,1.93,.53,1.91,.03,3.81-.07,5.72-.12,.93-.03,1.04-.14,1.05-1.08,.05-4.48,.09-8.96,.14-13.44,.01-1.32,.04-2.64,.05-3.96,0-.86-.52-1.35-1.26-1.63-.35-.14-.73-.29-1.1-.31-1.72-.08-3.45-.17-5.18-.13-.41,0-.93,.43-1.18,.81-.32,.46-.53,1.07-.58,1.63-.16,1.72-.24,3.45-.3,5.17-.07,1.98-.04,3.97-.13,5.95-.04,.98,0,1.28,.94,1.55,.4,.12,.82,.15,1.48,.15,0-1.77,.04-3.41-.01-5.05-.07-2.14-.24-4.28,.42-6.36,.08-.26,.28-.67,.47-.7,.88-.12,1.77-.22,2.65-.17,.82,.05,1.2,.7,1.18,1.47-.05,2.11-.1,4.22-.05,6.33,.06,2.4,.11,4.78-.53,7.13-.12,.45-.33,.61-.79,.6Z"/>
      <path class="cls-1" d="M13.18,6.56c-.27-1.11-1.11-1.63-2.25-1.54-1.83,.15-3.66,.3-5.48,.31-.75,0-1.18,.33-1.58,.82-.43,.53-.12,1.23,.56,1.28,.43,.03,.86-.03,1.29-.06,1.17-.08,2.33-.19,3.5-.22,.69-.01,1.35,.25,1.6,.96,.23,.66,.36,1.37,.43,2.08,.08,.76-.34,1.3-1.08,1.45-.77,.16-1.56,.19-2.34,.3-.93,.13-1.86,.27-2.78,.45-.19,.04-.45,.2-.52,.36-.38,.96,.03,1.55,1.06,1.58,.2,0,.41,0,.76,0,1.68-.13,3.51-.29,5.34-.39,.96-.05,1.41-.56,1.61-1.43,.46-2,.35-3.99-.12-5.97Z"/>
    </g>
  </g>
</svg>