<?xml version="1.0" encoding="UTF-8"?>
<svg xmlns="http://www.w3.org/2000/svg" viewBox="0 0 479.92 99.21">
  <defs>
    <style>
      .cls-1 {
        fill: #cecece;
      }

      .cls-2 {
        mix-blend-mode: color-burn;
        opacity: .8;
      }

      .cls-3 {
        isolation: isolate;
      }
    </style>
  </defs>
  <g class="cls-3">
    <g id="_图层_2" data-name="图层 2">
      <g id="_图层_1-2" data-name="图层 1">
        <g class="cls-2">
          <path class="cls-1" d="M4.52,6.48L5.8,0H46.64l-1.28,6.48L16.87,31.72h25.24l-.67,6.48H0l1.28-6.48L30.44,6.48H4.52Z"/>
          <path class="cls-1" d="M65.8,0l-1.96,14.85h15.05l1.82-12.28-1.96-2.56h14.92l-5.2,38.2h-12.96l2.56-16.87h-15.12l-2.36,16.87h-12.96L52.84,1.89l-2.63-1.89h15.59Z"/>
          <path class="cls-1" d="M136.67,0c.63,0,1.21,.11,1.75,.34,.54,.23,1,.54,1.38,.95,.38,.4,.64,.88,.78,1.42,.14,.54,.11,1.15-.07,1.82l-4.52,33.68h-36.31c-.63,0-1.21-.11-1.75-.34-.54-.22-1-.54-1.38-.95-.38-.4-.64-.89-.78-1.45-.13-.56-.11-1.16,.07-1.79L100.36,0h36.31Zm-24.63,6.48l-3.24,25.24h14.92l3.85-25.24h-15.52Z"/>
          <path class="cls-1" d="M160.83,0l13.57,23.96,3.24-23.96h11.07l-5.2,38.2h-12.96l-12.96-23.35-3.24,23.35h-11.68l5.2-35.63-2.63-2.56h15.59Z"/>
          <path class="cls-1" d="M234.93,11h-12.96l.61-4.52h-15.52l-3.24,25.24h15.52l.67-7.76-3.91-6.48h17.48l-2.56,20.72h-36.31c-.63,0-1.21-.11-1.75-.34-.54-.22-1-.54-1.38-.95-.38-.4-.64-.89-.78-1.45-.13-.56-.11-1.16,.07-1.79L195.38,0h40.83l-1.28,11Z"/>
          <path class="cls-1" d="M297.02,1.28h10.39l1.89,22L318.42,0h11l-15.52,38.2h-11.68l-2.63-18.76-7.76,18.76h-11.68l-4.52-36.92-1.28-1.28h12.28l1.96,23.28,8.44-22Z"/>
          <path class="cls-1" d="M371.26,0l-.61,6.48h-21.39l-1.28,8.37h20.04l-.61,6.48h-20.79l-1.28,10.39h22.68l-.61,6.48h-36.31l5.2-35.63-1.96-2.56h36.92Z"/>
          <path class="cls-1" d="M391.11,0l13.57,23.96,3.24-23.96h11.07l-5.2,38.2h-12.96l-12.96-23.35-3.24,23.35h-11.68l5.2-35.63-2.63-2.56h15.59Z"/>
          <path class="cls-1" d="M19.5,61.01l-5.87,38.2H1.35L5.87,63.57l-1.96-2.56h15.59Z"/>
          <path class="cls-1" d="M40.02,61.01l13.57,23.96,3.24-23.96h11.07l-5.2,38.2h-12.96l-12.96-23.35-3.24,23.35h-11.68l5.2-35.63-2.63-2.56h15.59Z"/>
          <path class="cls-1" d="M79.64,99.21l4.52-31.72h-14.24l.67-6.48h41.44l-1.28,6.48h-13.63l-4.52,31.72h-12.96Z"/>
          <path class="cls-1" d="M154.21,61.01l-.61,6.48h-21.39l-1.28,8.37h20.04l-.61,6.48h-20.79l-1.28,10.39h22.68l-.61,6.48h-36.31l5.2-35.63-1.96-2.56h36.92Z"/>
          <path class="cls-1" d="M173.38,61.01l-4.52,31.72h25.24l-.61,6.48h-33.68c-1.31,0-2.28-.43-2.94-1.28-.65-.85-.98-1.93-.98-3.24l3.91-31.11-1.96-2.56h15.52Z"/>
          <path class="cls-1" d="M212.59,61.01l-4.52,31.72h25.24l-.61,6.48h-33.68c-1.31,0-2.28-.43-2.94-1.28-.65-.85-.98-1.93-.98-3.24l3.91-31.11-1.96-2.56h15.52Z"/>
          <path class="cls-1" d="M252.82,61.01l-5.87,38.2h-12.28l4.52-35.63-1.96-2.56h15.59Z"/>
          <path class="cls-1" d="M299.39,72.01h-12.96l.61-4.52h-15.52l-3.24,25.24h15.52l.67-7.76-3.91-6.48h17.48l-2.56,20.72h-36.31c-.63,0-1.21-.11-1.75-.34-.54-.22-1-.54-1.38-.95-.38-.4-.64-.89-.78-1.45-.13-.56-.11-1.16,.07-1.79l4.52-33.68h40.83l-1.28,11Z"/>
          <path class="cls-1" d="M342.85,61.01l-.61,6.48h-21.39l-1.28,8.37h20.04l-.61,6.48h-20.79l-1.28,10.39h22.68l-.61,6.48h-36.31l5.2-35.63-1.96-2.56h36.92Z"/>
          <path class="cls-1" d="M362.69,61.01l13.57,23.96,3.24-23.96h11.07l-5.2,38.2h-12.96l-12.96-23.35-3.24,23.35h-11.68l5.2-35.63-2.63-2.56h15.59Z"/>
          <path class="cls-1" d="M394.82,98.87c-.54-.22-1-.54-1.38-.95-.38-.4-.64-.89-.78-1.45-.13-.56-.11-1.16,.07-1.79l4.52-33.68h40.83l-.67,6.48h-28.48l-3.24,25.24h25.24l3.24-2.57-1.28,9.04h-36.31c-.63,0-1.21-.11-1.75-.34Z"/>
          <path class="cls-1" d="M479.92,61.01l-.61,6.48h-21.39l-1.28,8.37h20.04l-.61,6.48h-20.79l-1.28,10.39h22.68l-.61,6.48h-36.31l5.2-35.63-1.96-2.56h36.92Z"/>
        </g>
      </g>
    </g>
  </g>
</svg>